<svg xmlns="http://www.w3.org/2000/svg" version="1.1" preserveAspectRatio="xMidYMid meet" viewBox="0 0 2375 54862.0">
  <rect fill="blue" height="16.3" stroke="black" width="12" x="15" y="54545.7"/>
  <text x="15" y="54567.0" font-family="Tahoma" font-size="12" transform="rotate(90 15,54567.0)" text-rendering="optimizeSpeed" fill="#000000">200812 (16323)</text>
  <rect fill="blue" height="57.0" stroke="black" width="12" x="30" y="54505.0"/>
  <text x="30" y="54567.0" font-family="Tahoma" font-size="12" transform="rotate(90 30,54567.0)" text-rendering="optimizeSpeed" fill="#000000">200901 (57010)</text>
  <rect fill="blue" height="77.6" stroke="black" width="12" x="45" y="54484.4"/>
  <text x="45" y="54567.0" font-family="Tahoma" font-size="12" transform="rotate(90 45,54567.0)" text-rendering="optimizeSpeed" fill="#000000">200902 (77587)</text>
  <rect fill="blue" height="104.4" stroke="black" width="12" x="60" y="54457.6"/>
  <text x="60" y="54567.0" font-family="Tahoma" font-size="12" transform="rotate(90 60,54567.0)" text-rendering="optimizeSpeed" fill="#000000">200903 (104364)</text>
  <rect fill="blue" height="119.0" stroke="black" width="12" x="75" y="54443.0"/>
  <text x="75" y="54567.0" font-family="Tahoma" font-size="12" transform="rotate(90 75,54567.0)" text-rendering="optimizeSpeed" fill="#000000">200904 (119034)</text>
  <rect fill="blue" height="133.1" stroke="black" width="12" x="90" y="54428.9"/>
  <text x="90" y="54567.0" font-family="Tahoma" font-size="12" transform="rotate(90 90,54567.0)" text-rendering="optimizeSpeed" fill="#000000">200905 (133090)</text>
  <rect fill="blue" height="154.3" stroke="black" width="12" x="105" y="54407.7"/>
  <text x="105" y="54567.0" font-family="Tahoma" font-size="12" transform="rotate(90 105,54567.0)" text-rendering="optimizeSpeed" fill="#000000">200906 (154319)</text>
  <rect fill="blue" height="173.4" stroke="black" width="12" x="120" y="54388.6"/>
  <text x="120" y="54567.0" font-family="Tahoma" font-size="12" transform="rotate(90 120,54567.0)" text-rendering="optimizeSpeed" fill="#000000">200907 (173410)</text>
  <rect fill="blue" height="183.4" stroke="black" width="12" x="135" y="54378.6"/>
  <text x="135" y="54567.0" font-family="Tahoma" font-size="12" transform="rotate(90 135,54567.0)" text-rendering="optimizeSpeed" fill="#000000">200908 (183425)</text>
  <rect fill="blue" height="201.9" stroke="black" width="12" x="150" y="54360.1"/>
  <text x="150" y="54567.0" font-family="Tahoma" font-size="12" transform="rotate(90 150,54567.0)" text-rendering="optimizeSpeed" fill="#000000">200909 (201948)</text>
  <rect fill="blue" height="222.7" stroke="black" width="12" x="165" y="54339.3"/>
  <text x="165" y="54567.0" font-family="Tahoma" font-size="12" transform="rotate(90 165,54567.0)" text-rendering="optimizeSpeed" fill="#000000">200910 (222659)</text>
  <rect fill="blue" height="254.0" stroke="black" width="12" x="180" y="54308.0"/>
  <text x="180" y="54567.0" font-family="Tahoma" font-size="12" transform="rotate(90 180,54567.0)" text-rendering="optimizeSpeed" fill="#000000">200911 (254005)</text>
  <rect fill="blue" height="273.9" stroke="black" width="12" x="195" y="54288.1"/>
  <text x="195" y="54567.0" font-family="Tahoma" font-size="12" transform="rotate(90 195,54567.0)" text-rendering="optimizeSpeed" fill="#000000">200912 (273876)</text>
  <rect fill="blue" height="287.3" stroke="black" width="12" x="210" y="54274.7"/>
  <text x="210" y="54567.0" font-family="Tahoma" font-size="12" transform="rotate(90 210,54567.0)" text-rendering="optimizeSpeed" fill="#000000">201001 (287288)</text>
  <rect fill="blue" height="309.5" stroke="black" width="12" x="225" y="54252.5"/>
  <text x="225" y="54567.0" font-family="Tahoma" font-size="12" transform="rotate(90 225,54567.0)" text-rendering="optimizeSpeed" fill="#000000">201002 (309523)</text>
  <rect fill="blue" height="347.2" stroke="black" width="12" x="240" y="54214.8"/>
  <text x="240" y="54567.0" font-family="Tahoma" font-size="12" transform="rotate(90 240,54567.0)" text-rendering="optimizeSpeed" fill="#000000">201003 (347236)</text>
  <rect fill="blue" height="362.7" stroke="black" width="12" x="255" y="54199.3"/>
  <text x="255" y="54567.0" font-family="Tahoma" font-size="12" transform="rotate(90 255,54567.0)" text-rendering="optimizeSpeed" fill="#000000">201004 (362659)</text>
  <rect fill="blue" height="392.0" stroke="black" width="12" x="270" y="54170.0"/>
  <text x="270" y="54567.0" font-family="Tahoma" font-size="12" transform="rotate(90 270,54567.0)" text-rendering="optimizeSpeed" fill="#000000">201005 (392035)</text>
  <rect fill="blue" height="415.2" stroke="black" width="12" x="285" y="54146.8"/>
  <text x="285" y="54567.0" font-family="Tahoma" font-size="12" transform="rotate(90 285,54567.0)" text-rendering="optimizeSpeed" fill="#000000">201006 (415165)</text>
  <rect fill="blue" height="434.3" stroke="black" width="12" x="300" y="54127.7"/>
  <text x="300" y="54567.0" font-family="Tahoma" font-size="12" transform="rotate(90 300,54567.0)" text-rendering="optimizeSpeed" fill="#000000">201007 (434258)</text>
  <rect fill="blue" height="125.5" stroke="black" width="12" x="315" y="54436.6"/>
  <text x="315" y="54567.0" font-family="Tahoma" font-size="12" transform="rotate(90 315,54567.0)" text-rendering="optimizeSpeed" fill="#000000">201008 (125455)</text>
  <rect fill="blue" height="198.2" stroke="black" width="12" x="330" y="54363.8"/>
  <text x="330" y="54567.0" font-family="Tahoma" font-size="12" transform="rotate(90 330,54567.0)" text-rendering="optimizeSpeed" fill="#000000">201009 (198206)</text>
  <rect fill="blue" height="261.4" stroke="black" width="12" x="345" y="54300.7"/>
  <text x="345" y="54567.0" font-family="Tahoma" font-size="12" transform="rotate(90 345,54567.0)" text-rendering="optimizeSpeed" fill="#000000">201010 (261352)</text>
  <rect fill="blue" height="328.3" stroke="black" width="12" x="360" y="54233.7"/>
  <text x="360" y="54567.0" font-family="Tahoma" font-size="12" transform="rotate(90 360,54567.0)" text-rendering="optimizeSpeed" fill="#000000">201011 (328313)</text>
  <rect fill="blue" height="369.8" stroke="black" width="12" x="375" y="54192.2"/>
  <text x="375" y="54567.0" font-family="Tahoma" font-size="12" transform="rotate(90 375,54567.0)" text-rendering="optimizeSpeed" fill="#000000">201012 (369792)</text>
  <rect fill="blue" height="414.1" stroke="black" width="12" x="390" y="54147.9"/>
  <text x="390" y="54567.0" font-family="Tahoma" font-size="12" transform="rotate(90 390,54567.0)" text-rendering="optimizeSpeed" fill="#000000">201101 (414094)</text>
  <rect fill="blue" height="455.0" stroke="black" width="12" x="405" y="54107.0"/>
  <text x="405" y="54567.0" font-family="Tahoma" font-size="12" transform="rotate(90 405,54567.0)" text-rendering="optimizeSpeed" fill="#000000">201102 (454981)</text>
  <rect fill="blue" height="502.9" stroke="black" width="12" x="420" y="54059.1"/>
  <text x="420" y="54567.0" font-family="Tahoma" font-size="12" transform="rotate(90 420,54567.0)" text-rendering="optimizeSpeed" fill="#000000">201103 (502863)</text>
  <rect fill="blue" height="526.1" stroke="black" width="12" x="435" y="54035.9"/>
  <text x="435" y="54567.0" font-family="Tahoma" font-size="12" transform="rotate(90 435,54567.0)" text-rendering="optimizeSpeed" fill="#000000">201104 (526103)</text>
  <rect fill="blue" height="592.4" stroke="black" width="12" x="450" y="53969.6"/>
  <text x="450" y="54567.0" font-family="Tahoma" font-size="12" transform="rotate(90 450,54567.0)" text-rendering="optimizeSpeed" fill="#000000">201105 (592392)</text>
  <rect fill="blue" height="628.3" stroke="black" width="12" x="465" y="53933.7"/>
  <text x="465" y="54567.0" font-family="Tahoma" font-size="12" transform="rotate(90 465,54567.0)" text-rendering="optimizeSpeed" fill="#000000">201106 (628286)</text>
  <rect fill="blue" height="638.8" stroke="black" width="12" x="480" y="53923.2"/>
  <text x="480" y="54567.0" font-family="Tahoma" font-size="12" transform="rotate(90 480,54567.0)" text-rendering="optimizeSpeed" fill="#000000">201107 (638802)</text>
  <rect fill="blue" height="670.1" stroke="black" width="12" x="495" y="53891.9"/>
  <text x="495" y="54567.0" font-family="Tahoma" font-size="12" transform="rotate(90 495,54567.0)" text-rendering="optimizeSpeed" fill="#000000">201108 (670134)</text>
  <rect fill="blue" height="733.8" stroke="black" width="12" x="510" y="53828.2"/>
  <text x="510" y="54567.0" font-family="Tahoma" font-size="12" transform="rotate(90 510,54567.0)" text-rendering="optimizeSpeed" fill="#000000">201109 (733795)</text>
  <rect fill="blue" height="770.6" stroke="black" width="12" x="525" y="53791.4"/>
  <text x="525" y="54567.0" font-family="Tahoma" font-size="12" transform="rotate(90 525,54567.0)" text-rendering="optimizeSpeed" fill="#000000">201110 (770602)</text>
  <rect fill="blue" height="820.4" stroke="black" width="12" x="540" y="53741.6"/>
  <text x="540" y="54567.0" font-family="Tahoma" font-size="12" transform="rotate(90 540,54567.0)" text-rendering="optimizeSpeed" fill="#000000">201111 (820391)</text>
  <rect fill="blue" height="845.3" stroke="black" width="12" x="555" y="53716.7"/>
  <text x="555" y="54567.0" font-family="Tahoma" font-size="12" transform="rotate(90 555,54567.0)" text-rendering="optimizeSpeed" fill="#000000">201112 (845287)</text>
  <rect fill="blue" height="901.0" stroke="black" width="12" x="570" y="53661.0"/>
  <text x="570" y="54567.0" font-family="Tahoma" font-size="12" transform="rotate(90 570,54567.0)" text-rendering="optimizeSpeed" fill="#000000">201201 (900989)</text>
  <rect fill="blue" height="994.2" stroke="black" width="12" x="585" y="53567.8"/>
  <text x="585" y="54567.0" font-family="Tahoma" font-size="12" transform="rotate(90 585,54567.0)" text-rendering="optimizeSpeed" fill="#000000">201202 (994228)</text>
  <rect fill="blue" height="1062.8" stroke="black" width="12" x="600" y="53499.2"/>
  <text x="600" y="54567.0" font-family="Tahoma" font-size="12" transform="rotate(90 600,54567.0)" text-rendering="optimizeSpeed" fill="#000000">201203 (1062847)</text>
  <rect fill="blue" height="1095.6" stroke="black" width="12" x="615" y="53466.4"/>
  <text x="615" y="54567.0" font-family="Tahoma" font-size="12" transform="rotate(90 615,54567.0)" text-rendering="optimizeSpeed" fill="#000000">201204 (1095646)</text>
  <rect fill="blue" height="1178.8" stroke="black" width="12" x="630" y="53383.2"/>
  <text x="630" y="54567.0" font-family="Tahoma" font-size="12" transform="rotate(90 630,54567.0)" text-rendering="optimizeSpeed" fill="#000000">201205 (1178808)</text>
  <rect fill="blue" height="1246.8" stroke="black" width="12" x="645" y="53315.2"/>
  <text x="645" y="54567.0" font-family="Tahoma" font-size="12" transform="rotate(90 645,54567.0)" text-rendering="optimizeSpeed" fill="#000000">201206 (1246787)</text>
  <rect fill="blue" height="1314.2" stroke="black" width="12" x="660" y="53247.8"/>
  <text x="660" y="54567.0" font-family="Tahoma" font-size="12" transform="rotate(90 660,54567.0)" text-rendering="optimizeSpeed" fill="#000000">201207 (1314159)</text>
  <rect fill="blue" height="1413.7" stroke="black" width="12" x="675" y="53148.3"/>
  <text x="675" y="54567.0" font-family="Tahoma" font-size="12" transform="rotate(90 675,54567.0)" text-rendering="optimizeSpeed" fill="#000000">201208 (1413662)</text>
  <rect fill="blue" height="1463.8" stroke="black" width="12" x="690" y="53098.2"/>
  <text x="690" y="54567.0" font-family="Tahoma" font-size="12" transform="rotate(90 690,54567.0)" text-rendering="optimizeSpeed" fill="#000000">201209 (1463831)</text>
  <rect fill="blue" height="1624.2" stroke="black" width="12" x="705" y="52937.8"/>
  <text x="705" y="54567.0" font-family="Tahoma" font-size="12" transform="rotate(90 705,54567.0)" text-rendering="optimizeSpeed" fill="#000000">201210 (1624234)</text>
  <rect fill="blue" height="1653.1" stroke="black" width="12" x="720" y="52908.9"/>
  <text x="720" y="54567.0" font-family="Tahoma" font-size="12" transform="rotate(90 720,54567.0)" text-rendering="optimizeSpeed" fill="#000000">201211 (1653083)</text>
  <rect fill="blue" height="1691.9" stroke="black" width="12" x="735" y="52870.2"/>
  <text x="735" y="54567.0" font-family="Tahoma" font-size="12" transform="rotate(90 735,54567.0)" text-rendering="optimizeSpeed" fill="#000000">201212 (1691853)</text>
  <rect fill="blue" height="1778.7" stroke="black" width="12" x="750" y="52783.3"/>
  <text x="750" y="54567.0" font-family="Tahoma" font-size="12" transform="rotate(90 750,54567.0)" text-rendering="optimizeSpeed" fill="#000000">201301 (1778659)</text>
  <rect fill="blue" height="1860.1" stroke="black" width="12" x="765" y="52701.9"/>
  <text x="765" y="54567.0" font-family="Tahoma" font-size="12" transform="rotate(90 765,54567.0)" text-rendering="optimizeSpeed" fill="#000000">201302 (1860091)</text>
  <rect fill="blue" height="1978.4" stroke="black" width="12" x="780" y="52583.6"/>
  <text x="780" y="54567.0" font-family="Tahoma" font-size="12" transform="rotate(90 780,54567.0)" text-rendering="optimizeSpeed" fill="#000000">201303 (1978443)</text>
  <rect fill="blue" height="2090.8" stroke="black" width="12" x="795" y="52471.2"/>
  <text x="795" y="54567.0" font-family="Tahoma" font-size="12" transform="rotate(90 795,54567.0)" text-rendering="optimizeSpeed" fill="#000000">201304 (2090830)</text>
  <rect fill="blue" height="2199.9" stroke="black" width="12" x="810" y="52362.1"/>
  <text x="810" y="54567.0" font-family="Tahoma" font-size="12" transform="rotate(90 810,54567.0)" text-rendering="optimizeSpeed" fill="#000000">201305 (2199940)</text>
  <rect fill="blue" height="2285.3" stroke="black" width="12" x="825" y="52276.7"/>
  <text x="825" y="54567.0" font-family="Tahoma" font-size="12" transform="rotate(90 825,54567.0)" text-rendering="optimizeSpeed" fill="#000000">201306 (2285256)</text>
  <rect fill="blue" height="2413.2" stroke="black" width="12" x="840" y="52148.8"/>
  <text x="840" y="54567.0" font-family="Tahoma" font-size="12" transform="rotate(90 840,54567.0)" text-rendering="optimizeSpeed" fill="#000000">201307 (2413217)</text>
  <rect fill="blue" height="2497.7" stroke="black" width="12" x="855" y="52064.3"/>
  <text x="855" y="54567.0" font-family="Tahoma" font-size="12" transform="rotate(90 855,54567.0)" text-rendering="optimizeSpeed" fill="#000000">201308 (2497655)</text>
  <rect fill="blue" height="2494.6" stroke="black" width="12" x="870" y="52067.4"/>
  <text x="870" y="54567.0" font-family="Tahoma" font-size="12" transform="rotate(90 870,54567.0)" text-rendering="optimizeSpeed" fill="#000000">201309 (2494637)</text>
  <rect fill="blue" height="2668.6" stroke="black" width="12" x="885" y="51893.4"/>
  <text x="885" y="54567.0" font-family="Tahoma" font-size="12" transform="rotate(90 885,54567.0)" text-rendering="optimizeSpeed" fill="#000000">201310 (2668613)</text>
  <rect fill="blue" height="2772.2" stroke="black" width="12" x="900" y="51789.8"/>
  <text x="900" y="54567.0" font-family="Tahoma" font-size="12" transform="rotate(90 900,54567.0)" text-rendering="optimizeSpeed" fill="#000000">201311 (2772223)</text>
  <rect fill="blue" height="2817.0" stroke="black" width="12" x="915" y="51745.0"/>
  <text x="915" y="54567.0" font-family="Tahoma" font-size="12" transform="rotate(90 915,54567.0)" text-rendering="optimizeSpeed" fill="#000000">201312 (2816994)</text>
  <rect fill="blue" height="3019.9" stroke="black" width="12" x="930" y="51542.1"/>
  <text x="930" y="54567.0" font-family="Tahoma" font-size="12" transform="rotate(90 930,54567.0)" text-rendering="optimizeSpeed" fill="#000000">201401 (3019905)</text>
  <rect fill="blue" height="3108.5" stroke="black" width="12" x="945" y="51453.5"/>
  <text x="945" y="54567.0" font-family="Tahoma" font-size="12" transform="rotate(90 945,54567.0)" text-rendering="optimizeSpeed" fill="#000000">201402 (3108511)</text>
  <rect fill="blue" height="3330.2" stroke="black" width="12" x="960" y="51231.8"/>
  <text x="960" y="54567.0" font-family="Tahoma" font-size="12" transform="rotate(90 960,54567.0)" text-rendering="optimizeSpeed" fill="#000000">201403 (3330226)</text>
  <rect fill="blue" height="3462.6" stroke="black" width="12" x="975" y="51099.4"/>
  <text x="975" y="54567.0" font-family="Tahoma" font-size="12" transform="rotate(90 975,54567.0)" text-rendering="optimizeSpeed" fill="#000000">201404 (3462555)</text>
  <rect fill="blue" height="3634.4" stroke="black" width="12" x="990" y="50927.6"/>
  <text x="990" y="54567.0" font-family="Tahoma" font-size="12" transform="rotate(90 990,54567.0)" text-rendering="optimizeSpeed" fill="#000000">201405 (3634370)</text>
  <rect fill="blue" height="3751.3" stroke="black" width="12" x="1005" y="50810.7"/>
  <text x="1005" y="54567.0" font-family="Tahoma" font-size="12" transform="rotate(90 1005,54567.0)" text-rendering="optimizeSpeed" fill="#000000">201406 (3751256)</text>
  <rect fill="blue" height="3917.5" stroke="black" width="12" x="1020" y="50644.5"/>
  <text x="1020" y="54567.0" font-family="Tahoma" font-size="12" transform="rotate(90 1020,54567.0)" text-rendering="optimizeSpeed" fill="#000000">201407 (3917505)</text>
  <rect fill="blue" height="4114.6" stroke="black" width="12" x="1035" y="50447.4"/>
  <text x="1035" y="54567.0" font-family="Tahoma" font-size="12" transform="rotate(90 1035,54567.0)" text-rendering="optimizeSpeed" fill="#000000">201408 (4114596)</text>
  <rect fill="blue" height="4348.5" stroke="black" width="12" x="1050" y="50213.5"/>
  <text x="1050" y="54567.0" font-family="Tahoma" font-size="12" transform="rotate(90 1050,54567.0)" text-rendering="optimizeSpeed" fill="#000000">201409 (4348469)</text>
  <rect fill="blue" height="4587.1" stroke="black" width="12" x="1065" y="49974.9"/>
  <text x="1065" y="54567.0" font-family="Tahoma" font-size="12" transform="rotate(90 1065,54567.0)" text-rendering="optimizeSpeed" fill="#000000">201410 (4587115)</text>
  <rect fill="blue" height="4625.0" stroke="black" width="12" x="1080" y="49937.0"/>
  <text x="1080" y="54567.0" font-family="Tahoma" font-size="12" transform="rotate(90 1080,54567.0)" text-rendering="optimizeSpeed" fill="#000000">201411 (4624966)</text>
  <rect fill="blue" height="4797.9" stroke="black" width="12" x="1095" y="49764.1"/>
  <text x="1095" y="54567.0" font-family="Tahoma" font-size="12" transform="rotate(90 1095,54567.0)" text-rendering="optimizeSpeed" fill="#000000">201412 (4797912)</text>
  <rect fill="blue" height="5046.2" stroke="black" width="12" x="1110" y="49515.8"/>
  <text x="1110" y="54567.0" font-family="Tahoma" font-size="12" transform="rotate(90 1110,54567.0)" text-rendering="optimizeSpeed" fill="#000000">201501 (5046186)</text>
  <rect fill="blue" height="5208.8" stroke="black" width="12" x="1125" y="49353.2"/>
  <text x="1125" y="54567.0" font-family="Tahoma" font-size="12" transform="rotate(90 1125,54567.0)" text-rendering="optimizeSpeed" fill="#000000">201502 (5208788)</text>
  <rect fill="blue" height="5519.8" stroke="black" width="12" x="1140" y="49042.2"/>
  <text x="1140" y="54567.0" font-family="Tahoma" font-size="12" transform="rotate(90 1140,54567.0)" text-rendering="optimizeSpeed" fill="#000000">201503 (5519802)</text>
  <rect fill="blue" height="5763.1" stroke="black" width="12" x="1155" y="48798.9"/>
  <text x="1155" y="54567.0" font-family="Tahoma" font-size="12" transform="rotate(90 1155,54567.0)" text-rendering="optimizeSpeed" fill="#000000">201504 (5763070)</text>
  <rect fill="blue" height="5978.0" stroke="black" width="12" x="1170" y="48584.0"/>
  <text x="1170" y="54567.0" font-family="Tahoma" font-size="12" transform="rotate(90 1170,54567.0)" text-rendering="optimizeSpeed" fill="#000000">201505 (5977998)</text>
  <rect fill="blue" height="6287.0" stroke="black" width="12" x="1185" y="48275.0"/>
  <text x="1185" y="54567.0" font-family="Tahoma" font-size="12" transform="rotate(90 1185,54567.0)" text-rendering="optimizeSpeed" fill="#000000">201506 (6287048)</text>
  <rect fill="blue" height="6531.9" stroke="black" width="12" x="1200" y="48030.2"/>
  <text x="1200" y="54567.0" font-family="Tahoma" font-size="12" transform="rotate(90 1200,54567.0)" text-rendering="optimizeSpeed" fill="#000000">201507 (6531851)</text>
  <rect fill="blue" height="6526.5" stroke="black" width="12" x="1215" y="48035.5"/>
  <text x="1215" y="54567.0" font-family="Tahoma" font-size="12" transform="rotate(90 1215,54567.0)" text-rendering="optimizeSpeed" fill="#000000">201508 (6526480)</text>
  <rect fill="blue" height="6813.1" stroke="black" width="12" x="1230" y="47748.9"/>
  <text x="1230" y="54567.0" font-family="Tahoma" font-size="12" transform="rotate(90 1230,54567.0)" text-rendering="optimizeSpeed" fill="#000000">201509 (6813144)</text>
  <rect fill="blue" height="7337.8" stroke="black" width="12" x="1245" y="47224.2"/>
  <text x="1245" y="54567.0" font-family="Tahoma" font-size="12" transform="rotate(90 1245,54567.0)" text-rendering="optimizeSpeed" fill="#000000">201510 (7337796)</text>
  <rect fill="blue" height="7499.6" stroke="black" width="12" x="1260" y="47062.4"/>
  <text x="1260" y="54567.0" font-family="Tahoma" font-size="12" transform="rotate(90 1260,54567.0)" text-rendering="optimizeSpeed" fill="#000000">201511 (7499608)</text>
  <rect fill="blue" height="7732.7" stroke="black" width="12" x="1275" y="46829.3"/>
  <text x="1275" y="54567.0" font-family="Tahoma" font-size="12" transform="rotate(90 1275,54567.0)" text-rendering="optimizeSpeed" fill="#000000">201512 (7732707)</text>
  <rect fill="blue" height="8139.5" stroke="black" width="12" x="1290" y="46422.5"/>
  <text x="1290" y="54567.0" font-family="Tahoma" font-size="12" transform="rotate(90 1290,54567.0)" text-rendering="optimizeSpeed" fill="#000000">201601 (8139540)</text>
  <rect fill="blue" height="7646.4" stroke="black" width="12" x="1305" y="46915.6"/>
  <text x="1305" y="54567.0" font-family="Tahoma" font-size="12" transform="rotate(90 1305,54567.0)" text-rendering="optimizeSpeed" fill="#000000">201602 (7646383)</text>
  <rect fill="blue" height="7677.2" stroke="black" width="12" x="1320" y="46884.8"/>
  <text x="1320" y="54567.0" font-family="Tahoma" font-size="12" transform="rotate(90 1320,54567.0)" text-rendering="optimizeSpeed" fill="#000000">201603 (7677213)</text>
  <rect fill="blue" height="7917.8" stroke="black" width="12" x="1335" y="46644.2"/>
  <text x="1335" y="54567.0" font-family="Tahoma" font-size="12" transform="rotate(90 1335,54567.0)" text-rendering="optimizeSpeed" fill="#000000">201604 (7917818)</text>
  <rect fill="blue" height="8194.6" stroke="black" width="12" x="1350" y="46367.4"/>
  <text x="1350" y="54567.0" font-family="Tahoma" font-size="12" transform="rotate(90 1350,54567.0)" text-rendering="optimizeSpeed" fill="#000000">201605 (8194567)</text>
  <rect fill="blue" height="8533.6" stroke="black" width="12" x="1365" y="46028.4"/>
  <text x="1365" y="54567.0" font-family="Tahoma" font-size="12" transform="rotate(90 1365,54567.0)" text-rendering="optimizeSpeed" fill="#000000">201606 (8533634)</text>
  <rect fill="blue" height="8719.6" stroke="black" width="12" x="1380" y="45842.4"/>
  <text x="1380" y="54567.0" font-family="Tahoma" font-size="12" transform="rotate(90 1380,54567.0)" text-rendering="optimizeSpeed" fill="#000000">201607 (8719592)</text>
  <rect fill="blue" height="9087.9" stroke="black" width="12" x="1395" y="45474.1"/>
  <text x="1395" y="54567.0" font-family="Tahoma" font-size="12" transform="rotate(90 1395,54567.0)" text-rendering="optimizeSpeed" fill="#000000">201608 (9087941)</text>
  <rect fill="blue" height="9464.1" stroke="black" width="12" x="1410" y="45097.9"/>
  <text x="1410" y="54567.0" font-family="Tahoma" font-size="12" transform="rotate(90 1410,54567.0)" text-rendering="optimizeSpeed" fill="#000000">201609 (9464135)</text>
  <rect fill="blue" height="9654.6" stroke="black" width="12" x="1425" y="44907.4"/>
  <text x="1425" y="54567.0" font-family="Tahoma" font-size="12" transform="rotate(90 1425,54567.0)" text-rendering="optimizeSpeed" fill="#000000">201610 (9654585)</text>
  <rect fill="blue" height="10021.7" stroke="black" width="12" x="1440" y="44540.3"/>
  <text x="1440" y="54567.0" font-family="Tahoma" font-size="12" transform="rotate(90 1440,54567.0)" text-rendering="optimizeSpeed" fill="#000000">201611 (10021717)</text>
  <rect fill="blue" height="10084.9" stroke="black" width="12" x="1455" y="44477.1"/>
  <text x="1455" y="54567.0" font-family="Tahoma" font-size="12" transform="rotate(90 1455,54567.0)" text-rendering="optimizeSpeed" fill="#000000">201612 (10084926)</text>
  <rect fill="blue" height="10444.5" stroke="black" width="12" x="1470" y="44117.6"/>
  <text x="1470" y="54567.0" font-family="Tahoma" font-size="12" transform="rotate(90 1470,54567.0)" text-rendering="optimizeSpeed" fill="#000000">201701 (10444450)</text>
  <rect fill="blue" height="11041.6" stroke="black" width="12" x="1485" y="43520.4"/>
  <text x="1485" y="54567.0" font-family="Tahoma" font-size="12" transform="rotate(90 1485,54567.0)" text-rendering="optimizeSpeed" fill="#000000">201702 (11041600)</text>
  <rect fill="blue" height="11480.4" stroke="black" width="12" x="1500" y="43081.6"/>
  <text x="1500" y="54567.0" font-family="Tahoma" font-size="12" transform="rotate(90 1500,54567.0)" text-rendering="optimizeSpeed" fill="#000000">201703 (11480409)</text>
  <rect fill="blue" height="11784.9" stroke="black" width="12" x="1515" y="42777.1"/>
  <text x="1515" y="54567.0" font-family="Tahoma" font-size="12" transform="rotate(90 1515,54567.0)" text-rendering="optimizeSpeed" fill="#000000">201704 (11784888)</text>
  <rect fill="blue" height="12304.5" stroke="black" width="12" x="1530" y="42257.5"/>
  <text x="1530" y="54567.0" font-family="Tahoma" font-size="12" transform="rotate(90 1530,54567.0)" text-rendering="optimizeSpeed" fill="#000000">201705 (12304479)</text>
  <rect fill="blue" height="12896.0" stroke="black" width="12" x="1545" y="41666.0"/>
  <text x="1545" y="54567.0" font-family="Tahoma" font-size="12" transform="rotate(90 1545,54567.0)" text-rendering="optimizeSpeed" fill="#000000">201706 (12896045)</text>
  <rect fill="blue" height="12881.9" stroke="black" width="12" x="1560" y="41680.1"/>
  <text x="1560" y="54567.0" font-family="Tahoma" font-size="12" transform="rotate(90 1560,54567.0)" text-rendering="optimizeSpeed" fill="#000000">201707 (12881933)</text>
  <rect fill="blue" height="13648.8" stroke="black" width="12" x="1575" y="40913.2"/>
  <text x="1575" y="54567.0" font-family="Tahoma" font-size="12" transform="rotate(90 1575,54567.0)" text-rendering="optimizeSpeed" fill="#000000">201708 (13648813)</text>
  <rect fill="blue" height="14694.8" stroke="black" width="12" x="1590" y="39867.2"/>
  <text x="1590" y="54567.0" font-family="Tahoma" font-size="12" transform="rotate(90 1590,54567.0)" text-rendering="optimizeSpeed" fill="#000000">201709 (14694789)</text>
  <rect fill="blue" height="15036.3" stroke="black" width="12" x="1605" y="39525.7"/>
  <text x="1605" y="54567.0" font-family="Tahoma" font-size="12" transform="rotate(90 1605,54567.0)" text-rendering="optimizeSpeed" fill="#000000">201710 (15036345)</text>
  <rect fill="blue" height="15853.2" stroke="black" width="12" x="1620" y="38708.8"/>
  <text x="1620" y="54567.0" font-family="Tahoma" font-size="12" transform="rotate(90 1620,54567.0)" text-rendering="optimizeSpeed" fill="#000000">201711 (15853161)</text>
  <rect fill="blue" height="16214.0" stroke="black" width="12" x="1635" y="38348.0"/>
  <text x="1635" y="54567.0" font-family="Tahoma" font-size="12" transform="rotate(90 1635,54567.0)" text-rendering="optimizeSpeed" fill="#000000">201712 (16214025)</text>
  <rect fill="blue" height="17266.3" stroke="black" width="12" x="1650" y="37295.7"/>
  <text x="1650" y="54567.0" font-family="Tahoma" font-size="12" transform="rotate(90 1650,54567.0)" text-rendering="optimizeSpeed" fill="#000000">201801 (17266263)</text>
  <rect fill="blue" height="17289.1" stroke="black" width="12" x="1665" y="37273.0"/>
  <text x="1665" y="54567.0" font-family="Tahoma" font-size="12" transform="rotate(90 1665,54567.0)" text-rendering="optimizeSpeed" fill="#000000">201802 (17289053)</text>
  <rect fill="blue" height="17693.5" stroke="black" width="12" x="1680" y="36868.5"/>
  <text x="1680" y="54567.0" font-family="Tahoma" font-size="12" transform="rotate(90 1680,54567.0)" text-rendering="optimizeSpeed" fill="#000000">201803 (17693514)</text>
  <rect fill="blue" height="18132.3" stroke="black" width="12" x="1695" y="36429.7"/>
  <text x="1695" y="54567.0" font-family="Tahoma" font-size="12" transform="rotate(90 1695,54567.0)" text-rendering="optimizeSpeed" fill="#000000">201804 (18132270)</text>
  <rect fill="blue" height="18792.6" stroke="black" width="12" x="1710" y="35769.4"/>
  <text x="1710" y="54567.0" font-family="Tahoma" font-size="12" transform="rotate(90 1710,54567.0)" text-rendering="optimizeSpeed" fill="#000000">201805 (18792627)</text>
  <rect fill="blue" height="19124.9" stroke="black" width="12" x="1725" y="35437.1"/>
  <text x="1725" y="54567.0" font-family="Tahoma" font-size="12" transform="rotate(90 1725,54567.0)" text-rendering="optimizeSpeed" fill="#000000">201806 (19124899)</text>
  <rect fill="blue" height="19022.4" stroke="black" width="12" x="1740" y="35539.6"/>
  <text x="1740" y="54567.0" font-family="Tahoma" font-size="12" transform="rotate(90 1740,54567.0)" text-rendering="optimizeSpeed" fill="#000000">201807 (19022436)</text>
  <rect fill="blue" height="19946.2" stroke="black" width="12" x="1755" y="34615.8"/>
  <text x="1755" y="54567.0" font-family="Tahoma" font-size="12" transform="rotate(90 1755,54567.0)" text-rendering="optimizeSpeed" fill="#000000">201808 (19946177)</text>
  <rect fill="blue" height="20664.2" stroke="black" width="12" x="1770" y="33897.8"/>
  <text x="1770" y="54567.0" font-family="Tahoma" font-size="12" transform="rotate(90 1770,54567.0)" text-rendering="optimizeSpeed" fill="#000000">201809 (20664191)</text>
  <rect fill="blue" height="21506.3" stroke="black" width="12" x="1785" y="33055.7"/>
  <text x="1785" y="54567.0" font-family="Tahoma" font-size="12" transform="rotate(90 1785,54567.0)" text-rendering="optimizeSpeed" fill="#000000">201810 (21506258)</text>
  <rect fill="blue" height="22329.2" stroke="black" width="12" x="1800" y="32232.8"/>
  <text x="1800" y="54567.0" font-family="Tahoma" font-size="12" transform="rotate(90 1800,54567.0)" text-rendering="optimizeSpeed" fill="#000000">201811 (22329238)</text>
  <rect fill="blue" height="22527.6" stroke="black" width="12" x="1815" y="32034.4"/>
  <text x="1815" y="54567.0" font-family="Tahoma" font-size="12" transform="rotate(90 1815,54567.0)" text-rendering="optimizeSpeed" fill="#000000">201812 (22527640)</text>
  <rect fill="blue" height="23766.5" stroke="black" width="12" x="1830" y="30795.5"/>
  <text x="1830" y="54567.0" font-family="Tahoma" font-size="12" transform="rotate(90 1830,54567.0)" text-rendering="optimizeSpeed" fill="#000000">201901 (23766468)</text>
  <rect fill="blue" height="23871.5" stroke="black" width="12" x="1845" y="30690.5"/>
  <text x="1845" y="54567.0" font-family="Tahoma" font-size="12" transform="rotate(90 1845,54567.0)" text-rendering="optimizeSpeed" fill="#000000">201902 (23871537)</text>
  <rect fill="blue" height="26362.2" stroke="black" width="12" x="1860" y="28199.8"/>
  <text x="1860" y="54567.0" font-family="Tahoma" font-size="12" transform="rotate(90 1860,54567.0)" text-rendering="optimizeSpeed" fill="#000000">201903 (26362178)</text>
  <rect fill="blue" height="26461.8" stroke="black" width="12" x="1875" y="28100.2"/>
  <text x="1875" y="54567.0" font-family="Tahoma" font-size="12" transform="rotate(90 1875,54567.0)" text-rendering="optimizeSpeed" fill="#000000">201904 (26461755)</text>
  <rect fill="blue" height="28314.1" stroke="black" width="12" x="1890" y="26247.9"/>
  <text x="1890" y="54567.0" font-family="Tahoma" font-size="12" transform="rotate(90 1890,54567.0)" text-rendering="optimizeSpeed" fill="#000000">201905 (28314079)</text>
  <rect fill="blue" height="29047.2" stroke="black" width="12" x="1905" y="25514.8"/>
  <text x="1905" y="54567.0" font-family="Tahoma" font-size="12" transform="rotate(90 1905,54567.0)" text-rendering="optimizeSpeed" fill="#000000">201906 (29047213)</text>
  <rect fill="blue" height="30282.2" stroke="black" width="12" x="1920" y="24279.8"/>
  <text x="1920" y="54567.0" font-family="Tahoma" font-size="12" transform="rotate(90 1920,54567.0)" text-rendering="optimizeSpeed" fill="#000000">201907 (30282181)</text>
  <rect fill="blue" height="30911.0" stroke="black" width="12" x="1935" y="23651.0"/>
  <text x="1935" y="54567.0" font-family="Tahoma" font-size="12" transform="rotate(90 1935,54567.0)" text-rendering="optimizeSpeed" fill="#000000">201908 (30910963)</text>
  <rect fill="blue" height="31209.7" stroke="black" width="12" x="1950" y="23352.3"/>
  <text x="1950" y="54567.0" font-family="Tahoma" font-size="12" transform="rotate(90 1950,54567.0)" text-rendering="optimizeSpeed" fill="#000000">201909 (31209675)</text>
  <rect fill="blue" height="33047.6" stroke="black" width="12" x="1965" y="21514.4"/>
  <text x="1965" y="54567.0" font-family="Tahoma" font-size="12" transform="rotate(90 1965,54567.0)" text-rendering="optimizeSpeed" fill="#000000">201910 (33047638)</text>
  <rect fill="blue" height="33243.2" stroke="black" width="12" x="1980" y="21318.8"/>
  <text x="1980" y="54567.0" font-family="Tahoma" font-size="12" transform="rotate(90 1980,54567.0)" text-rendering="optimizeSpeed" fill="#000000">201911 (33243242)</text>
  <rect fill="blue" height="32876.2" stroke="black" width="12" x="1995" y="21685.8"/>
  <text x="1995" y="54567.0" font-family="Tahoma" font-size="12" transform="rotate(90 1995,54567.0)" text-rendering="optimizeSpeed" fill="#000000">201912 (32876209)</text>
  <rect fill="blue" height="34074.9" stroke="black" width="12" x="2010" y="20487.1"/>
  <text x="2010" y="54567.0" font-family="Tahoma" font-size="12" transform="rotate(90 2010,54567.0)" text-rendering="optimizeSpeed" fill="#000000">202001 (34074887)</text>
  <rect fill="blue" height="34198.6" stroke="black" width="12" x="2025" y="20363.4"/>
  <text x="2025" y="54567.0" font-family="Tahoma" font-size="12" transform="rotate(90 2025,54567.0)" text-rendering="optimizeSpeed" fill="#000000">202002 (34198615)</text>
  <rect fill="blue" height="35473.7" stroke="black" width="12" x="2040" y="19088.3"/>
  <text x="2040" y="54567.0" font-family="Tahoma" font-size="12" transform="rotate(90 2040,54567.0)" text-rendering="optimizeSpeed" fill="#000000">202003 (35473695)</text>
  <rect fill="blue" height="36521.7" stroke="black" width="12" x="2055" y="18040.3"/>
  <text x="2055" y="54567.0" font-family="Tahoma" font-size="12" transform="rotate(90 2055,54567.0)" text-rendering="optimizeSpeed" fill="#000000">202004 (36521716)</text>
  <rect fill="blue" height="38176.1" stroke="black" width="12" x="2070" y="16385.9"/>
  <text x="2070" y="54567.0" font-family="Tahoma" font-size="12" transform="rotate(90 2070,54567.0)" text-rendering="optimizeSpeed" fill="#000000">202005 (38176117)</text>
  <rect fill="blue" height="38958.3" stroke="black" width="12" x="2085" y="15603.7"/>
  <text x="2085" y="54567.0" font-family="Tahoma" font-size="12" transform="rotate(90 2085,54567.0)" text-rendering="optimizeSpeed" fill="#000000">202006 (38958259)</text>
  <rect fill="blue" height="39899.9" stroke="black" width="12" x="2100" y="14662.1"/>
  <text x="2100" y="54567.0" font-family="Tahoma" font-size="12" transform="rotate(90 2100,54567.0)" text-rendering="optimizeSpeed" fill="#000000">202007 (39899894)</text>
  <rect fill="blue" height="40181.1" stroke="black" width="12" x="2115" y="14380.9"/>
  <text x="2115" y="54567.0" font-family="Tahoma" font-size="12" transform="rotate(90 2115,54567.0)" text-rendering="optimizeSpeed" fill="#000000">202008 (40181129)</text>
  <rect fill="blue" height="41319.4" stroke="black" width="12" x="2130" y="13242.6"/>
  <text x="2130" y="54567.0" font-family="Tahoma" font-size="12" transform="rotate(90 2130,54567.0)" text-rendering="optimizeSpeed" fill="#000000">202009 (41319362)</text>
  <rect fill="blue" height="43225.0" stroke="black" width="12" x="2145" y="11337.0"/>
  <text x="2145" y="54567.0" font-family="Tahoma" font-size="12" transform="rotate(90 2145,54567.0)" text-rendering="optimizeSpeed" fill="#000000">202010 (43225016)</text>
  <rect fill="blue" height="43425.2" stroke="black" width="12" x="2160" y="11136.8"/>
  <text x="2160" y="54567.0" font-family="Tahoma" font-size="12" transform="rotate(90 2160,54567.0)" text-rendering="optimizeSpeed" fill="#000000">202011 (43425203)</text>
  <rect fill="blue" height="43976.2" stroke="black" width="12" x="2175" y="10585.8"/>
  <text x="2175" y="54567.0" font-family="Tahoma" font-size="12" transform="rotate(90 2175,54567.0)" text-rendering="optimizeSpeed" fill="#000000">202012 (43976167)</text>
  <rect fill="blue" height="45367.6" stroke="black" width="12" x="2190" y="9194.4"/>
  <text x="2190" y="54567.0" font-family="Tahoma" font-size="12" transform="rotate(90 2190,54567.0)" text-rendering="optimizeSpeed" fill="#000000">202101 (45367645)</text>
  <rect fill="blue" height="45989.0" stroke="black" width="12" x="2205" y="8573.0"/>
  <text x="2205" y="54567.0" font-family="Tahoma" font-size="12" transform="rotate(90 2205,54567.0)" text-rendering="optimizeSpeed" fill="#000000">202102 (45988977)</text>
  <rect fill="blue" height="48116.2" stroke="black" width="12" x="2220" y="6445.8"/>
  <text x="2220" y="54567.0" font-family="Tahoma" font-size="12" transform="rotate(90 2220,54567.0)" text-rendering="optimizeSpeed" fill="#000000">202103 (48116187)</text>
  <rect fill="blue" height="48287.1" stroke="black" width="12" x="2235" y="6274.9"/>
  <text x="2235" y="54567.0" font-family="Tahoma" font-size="12" transform="rotate(90 2235,54567.0)" text-rendering="optimizeSpeed" fill="#000000">202104 (48287114)</text>
  <rect fill="blue" height="49047.3" stroke="black" width="12" x="2250" y="5514.7"/>
  <text x="2250" y="54567.0" font-family="Tahoma" font-size="12" transform="rotate(90 2250,54567.0)" text-rendering="optimizeSpeed" fill="#000000">202105 (49047300)</text>
  <rect fill="blue" height="50785.2" stroke="black" width="12" x="2265" y="3776.8"/>
  <text x="2265" y="54567.0" font-family="Tahoma" font-size="12" transform="rotate(90 2265,54567.0)" text-rendering="optimizeSpeed" fill="#000000">202106 (50785205)</text>
  <rect fill="blue" height="52348.1" stroke="black" width="12" x="2280" y="2213.9"/>
  <text x="2280" y="54567.0" font-family="Tahoma" font-size="12" transform="rotate(90 2280,54567.0)" text-rendering="optimizeSpeed" fill="#000000">202107 (52348111)</text>
  <rect fill="blue" height="52552.7" stroke="black" width="12" x="2295" y="2009.3"/>
  <text x="2295" y="54567.0" font-family="Tahoma" font-size="12" transform="rotate(90 2295,54567.0)" text-rendering="optimizeSpeed" fill="#000000">202108 (52552661)</text>
  <rect fill="blue" height="54438.2" stroke="black" width="12" x="2310" y="123.8"/>
  <text x="2310" y="54567.0" font-family="Tahoma" font-size="12" transform="rotate(90 2310,54567.0)" text-rendering="optimizeSpeed" fill="#000000">202109 (54438237)</text>
  <rect fill="blue" height="54512.0" stroke="black" width="12" x="2325" y="50.0"/>
  <text x="2325" y="54567.0" font-family="Tahoma" font-size="12" transform="rotate(90 2325,54567.0)" text-rendering="optimizeSpeed" fill="#000000">202110 (54512005)</text>
  <text x="10" y="40" font-family="Tahoma" font-size="20" text-rendering="optimizeSpeed" fill="#000000">Total jobs</text>
</svg>
